<svg width="324" height="155" viewBox="0 0 324 155" fill="none" xmlns="http://www.w3.org/2000/svg">
<g clip-path="url(#clip0_145_56)">
<path d="M68.9282 39.1463V37.2356C72.9443 36.956 73.8783 36.6298 73.8783 32.855V20.2723H57.1132V32.855C57.1132 36.5832 58.0005 36.956 62.0634 37.2356V39.1463H44.4577V37.2356C48.4739 36.956 49.4078 36.6298 49.4078 32.855V6.52457C49.4078 3.96143 48.1937 3.12259 45.1115 3.12259H41.5157C33.4834 3.12259 28.72 7.27021 28.72 13.3285C28.72 17.849 31.6154 20.7849 34.6975 20.7849C36.4254 20.7849 37.4061 20.0393 37.4061 18.8276C37.4061 17.616 36.2853 16.8703 36.2853 15.0062C36.2853 12.5363 38.0599 11.0916 40.1614 11.0916C43.0567 11.0916 44.4577 13.5149 44.4577 15.9383C44.4577 20.6917 40.6284 24.0471 35.3513 24.0471C29.5139 24.0471 25.2643 19.9461 25.2643 13.3285C25.2643 5.40611 31.7555 -0.0463867 41.5157 -0.0463867H62.0634V1.81771C58.0472 2.09733 57.1132 2.47015 57.1132 6.24496V17.1033H73.8783V6.24496C73.8783 2.51675 72.991 2.09733 68.9282 1.81771V-0.0463867H86.5338V1.81771C82.5177 2.09733 81.5837 2.47015 81.5837 6.24496V32.855C81.5837 36.5832 82.471 36.956 86.5338 37.2356V39.1463H68.9282Z" fill="white"/>
<path d="M95.8736 39.8456C91.2971 39.8456 88.3083 37.5155 88.3083 33.6475C88.3083 27.3095 96.1071 25.1658 104.887 23.6279V20.6454C104.887 16.824 104.139 15.5191 101.431 15.5191C98.7223 15.5191 97.1812 16.6841 96.3873 19.4337C95.7802 21.4842 94.426 22.4629 92.7915 22.4629C91.157 22.4629 90.0829 21.4376 90.0829 19.4337C90.0829 15.7521 94.8463 12.7695 101.945 12.7695C107.175 12.7695 111.658 14.6802 111.658 20.925V33.9271C111.658 35.6514 112.218 36.4902 113.339 36.4902C113.853 36.4902 114.46 36.3038 115.207 35.931V38.4009C113.853 39.2864 112.359 39.7524 110.164 39.7524C107.548 39.7524 105.587 38.8203 105.027 36.2106C102.552 37.9815 99.3761 39.799 95.8736 39.799V39.8456ZM104.887 26.3775C99.1893 27.3095 95.4067 28.7076 95.4067 32.3892C95.4067 34.8125 96.9944 35.7912 98.9558 35.7912C101.104 35.7912 103.065 34.8591 104.887 33.5543V26.3309V26.3775Z" fill="white"/>
<path d="M115.02 49.3991V47.535C117.822 47.2554 118.429 46.6962 118.429 44.8321V20.692C118.429 19.3871 117.962 18.9677 116.842 18.9677H114.834V17.29L122.773 12.7695H125.201V15.5191C126.975 13.7948 129.404 12.7695 132.579 12.7695C139.771 12.7695 144.348 18.3618 144.348 26.3309C144.348 34.2999 139.771 39.8922 131.785 39.8922C128.984 39.8922 126.789 39.1 125.154 37.7019V44.7855C125.154 46.6496 125.808 47.2088 128.61 47.4884V49.3525H114.927L115.02 49.3991ZM125.248 34.1135C126.462 35.8378 128.236 36.8164 130.618 36.8164C135.428 36.8164 137.296 32.9484 137.296 26.4241C137.296 19.8997 135.428 16.0317 130.618 16.0317C128.19 16.0317 126.462 16.9638 125.248 18.7347V34.1601V34.1135Z" fill="white"/>
<path d="M145.468 49.3991V47.535C148.27 47.2554 148.877 46.6962 148.877 44.8321V20.692C148.877 19.3871 148.41 18.9677 147.29 18.9677H145.282V17.29L153.221 12.7695H155.649V15.5191C157.423 13.7948 159.852 12.7695 163.027 12.7695C170.219 12.7695 174.796 18.3618 174.796 26.3309C174.796 34.2999 170.219 39.8922 162.233 39.8922C159.432 39.8922 157.237 39.1 155.602 37.7019V44.7855C155.602 46.6496 156.256 47.2088 159.058 47.4884V49.3525H145.375L145.468 49.3991ZM155.649 34.1135C156.863 35.8378 158.638 36.8164 161.019 36.8164C165.829 36.8164 167.697 32.9484 167.697 26.4241C167.697 19.8997 165.829 16.0317 161.019 16.0317C158.591 16.0317 156.863 16.9638 155.649 18.7347V34.1601V34.1135Z" fill="white"/>
<path d="M183.575 41.8491C183.575 36.7695 187.685 33.1811 192.401 33.1811C197.118 33.1811 199.78 36.8161 199.78 40.2181C199.78 42.8278 198.472 44.9249 195.81 44.9249C194.036 44.9249 192.541 43.62 192.541 41.9423C192.541 39.8918 194.036 39.6588 194.036 38.3073C194.036 37.3753 192.915 36.4432 191.327 36.4432C188.805 36.4432 186.657 38.7268 186.657 41.8025C186.657 45.9502 190.3 48.6997 194.876 48.6997C199.453 48.6997 201.928 46.4628 205.244 39.8452L199.033 24.1868C195.624 15.4255 192.355 12.0701 187.171 12.0701C182.875 12.0701 179.185 14.8197 179.185 19.8527C179.185 23.0217 181.24 25.3518 183.995 25.3518C186.984 25.3518 185.91 21.2042 189.413 21.2042C191.14 21.2042 192.775 22.6489 192.775 24.7926C192.775 27.5422 190.3 30.0121 186.05 30.0121C181.053 30.0121 175.823 26.1441 175.823 19.8993C175.823 14.074 179.699 8.94775 187.731 8.94775C195.764 8.94775 202.535 14.307 206.458 24.28L209.073 31.0374L213.603 19.8993C214.91 16.7304 213.883 15.7517 210.988 15.4721V13.608H221.168V15.4721C219.113 15.7517 218.179 16.8702 216.965 19.8993L210.567 35.5578C205.524 48.1405 201.414 51.6357 194.876 51.6357C188.338 51.6357 183.435 47.5346 183.435 41.8491H183.575Z" fill="white"/>
<path d="M56.8331 79.4572C56.8331 90.4554 46.1856 96.6069 33.9037 96.6069C22.9294 96.6069 16.9519 90.269 16.9519 83.5116C16.9519 78.5717 19.7538 74.4707 24.1436 72.793V53.7326C24.1436 51.1694 22.9294 50.3306 19.8472 50.3306H16.2514C8.21908 50.3306 3.45575 54.4782 3.45575 60.5365C3.45575 65.057 6.35111 67.993 9.43327 67.993C11.1611 67.993 12.1418 67.2473 12.1418 66.0356C12.1418 64.824 11.021 64.0783 11.021 62.2142C11.021 59.7443 12.7956 58.2996 14.8971 58.2996C17.7924 58.2996 19.1934 60.723 19.1934 63.1463C19.1934 67.8997 15.3641 71.2551 10.0871 71.2551C4.24964 71.2551 0 67.1541 0 60.5365C0 52.6141 6.49121 47.1616 16.2514 47.1616H37.5463C47.9602 47.1616 54.6382 49.3519 54.6382 56.9948C54.6382 61.7948 51.3226 64.5444 45.6253 65.6162C52.8637 67.2939 56.8798 72.3736 56.8798 79.4106L56.8331 79.4572ZM48.8942 79.1776C48.8942 71.6745 44.7847 67.1075 37.4062 67.1075H31.8489V72.327C36.7991 73.3522 40.068 76.7542 40.068 81.2281C40.068 84.0242 38.6671 86.7272 35.3981 86.7272C33.3433 86.7272 31.4754 85.2825 31.4754 83.0922C31.4754 80.4824 33.7169 80.2494 33.7169 78.4319C33.7169 76.9872 32.2225 75.1231 28.4866 75.1231C24.3304 75.1231 20.3142 77.9193 20.3142 83.5582C20.3142 89.9427 26.4785 93.4845 33.857 93.4845C42.403 93.4845 48.8008 88.8243 48.8008 79.1776H48.8942ZM31.8489 63.9385H37.7798C43.2436 63.9385 46.6059 62.2142 46.6059 57.0414C46.6059 51.8685 43.4304 50.3306 37.4529 50.3306H33.4834C32.456 50.3306 31.8022 50.983 31.8022 52.0083V63.8919L31.8489 63.9385Z" fill="white"/>
<path d="M58.8879 86.3544V84.4437C61.6898 84.1641 62.2969 83.6048 62.2969 81.8339V54.3384C62.2969 53.0336 61.8299 52.6142 60.7092 52.6142H58.8412V50.9365L66.64 46.416H69.0683V81.8339C69.0683 83.6048 69.7221 84.1641 72.5241 84.4437V86.3544H58.8412H58.8879Z" fill="white"/>
<path d="M89.1024 64.5444L96.8545 60.0239H99.3295V81.8339C99.3295 83.6048 99.9833 84.164 102.785 84.4437V86.3544C99.3762 86.3544 95.9672 86.634 92.5581 87.1932V84.4437C90.3633 85.8417 87.0009 87.1932 84.0588 87.1932C80.3229 87.1932 75.653 85.7951 75.653 79.0378V67.993C75.653 66.6881 75.186 66.2687 74.0652 66.2687H72.1505V64.591L79.9493 60.0705H82.4244V79.1776C82.4244 82.2067 84.0588 83.4184 86.3938 83.4184C88.7288 83.4184 90.6434 82.6261 92.5581 81.3679V67.993C92.5581 66.6881 92.0911 66.2687 90.9703 66.2687H89.1024V64.591V64.5444Z" fill="white"/>
<path d="M110.724 71.535C110.677 72.1874 110.631 72.8864 110.631 73.5855C110.631 80.1098 112.826 84.0711 118.476 84.0711C121.932 84.0711 125.014 81.7875 126.835 77.7331L129.404 79.1312C127.209 83.8846 123.613 87.1002 117.822 87.1002C108.669 87.1002 103.532 81.2749 103.532 73.5389C103.532 65.8029 108.763 59.9775 116.795 59.9775C124.08 59.9775 128.563 64.2184 128.563 71.4884H110.771L110.724 71.535ZM121.932 68.599C121.932 64.9174 119.877 62.8203 116.888 62.8203C113.199 62.8203 111.565 64.8708 110.958 68.599H121.932Z" fill="white"/>
<path d="M105.727 130.673C106.755 128.623 107.689 126.293 108.716 123.636L114.04 109.702C118.85 97.1195 126.509 88.498 137.576 88.498C144.861 88.498 148.457 91.667 148.457 94.8826C148.457 96.8399 147.056 98.7506 144.628 98.7506C139.771 98.7506 140.799 92.3195 135.942 92.3195C127.443 92.3195 121.138 100.428 117.215 110.867L111.892 124.941C102.972 148.709 93.3053 154.953 81.864 154.953C72.7576 154.953 67.2471 148.336 67.2471 141.672C67.2471 133.19 74.5789 128.856 81.6305 128.856C86.8608 128.856 90.55 131.559 90.55 134.914C90.55 136.965 89.1024 138.875 86.7207 138.875C82.331 138.875 82.5178 133.609 78.2214 133.609C75.0459 133.609 70.8429 136.172 70.8429 141.672C70.8429 147.497 75.9332 151.784 81.864 151.784C88.9623 151.784 94.753 149.221 100.917 139.714L89.009 108.071C88.1217 105.648 87.2344 104.949 85.0862 104.949H84.2923C77.0539 104.949 71.6835 108.584 71.6835 115.155C71.6835 119.675 74.5789 122.611 77.661 122.611C79.3889 122.611 80.3696 121.865 80.3696 120.654C80.3696 119.442 79.2488 118.65 79.2488 116.832C79.2488 114.362 81.0234 112.918 83.1248 112.918C86.0202 112.918 87.4212 115.341 87.4212 117.764C87.4212 122.518 83.5918 125.873 78.2681 125.873C72.4307 125.873 68.1811 121.772 68.1811 115.155C68.1811 107.232 74.719 101.78 84.2456 101.78H100.637V103.644C96.4809 103.923 96.0606 104.949 97.228 108.071L105.681 130.673H105.727Z" fill="white"/>
<path d="M125.948 126.153C125.901 126.806 125.855 127.505 125.855 128.204C125.855 134.728 128.05 138.689 133.7 138.689C137.156 138.689 140.238 136.406 142.059 132.351L144.628 133.749C142.433 138.503 138.837 141.718 133.046 141.718C123.893 141.718 118.756 135.893 118.756 128.157C118.756 120.421 123.987 114.596 132.019 114.596C139.304 114.596 143.787 118.837 143.787 126.107H125.995L125.948 126.153ZM137.156 123.171C137.156 119.489 135.101 117.392 132.112 117.392C128.423 117.392 126.789 119.442 126.182 123.171H137.156Z" fill="white"/>
<path d="M154.061 141.672C149.485 141.672 146.496 139.342 146.496 135.474C146.496 129.136 154.295 126.992 163.074 125.454V122.472C163.074 118.65 162.327 117.345 159.618 117.345C156.91 117.345 155.369 118.51 154.575 121.26C153.968 123.31 152.613 124.289 150.979 124.289C149.345 124.289 148.27 123.264 148.27 121.26C148.27 117.578 153.034 114.596 160.132 114.596C165.362 114.596 169.846 116.506 169.846 122.751V135.753C169.846 137.478 170.406 138.316 171.527 138.316C172.04 138.316 172.647 138.13 173.395 137.757V140.227C172.04 141.113 170.546 141.579 168.351 141.579C165.736 141.579 163.775 140.647 163.214 138.037C160.739 139.808 157.564 141.625 154.061 141.625V141.672ZM163.074 128.204C157.377 129.136 153.594 130.534 153.594 134.215C153.594 136.639 155.182 137.617 157.143 137.617C159.291 137.617 161.253 136.685 163.074 135.38V128.157V128.204Z" fill="white"/>
<path d="M188.852 119.442C187.685 119.442 186.237 120.188 185.163 121.679V136.452C185.163 138.223 185.817 138.782 188.619 139.062V140.972H174.936V139.062C177.738 138.782 178.345 138.223 178.345 136.452V122.611C178.345 121.306 177.878 120.887 176.757 120.887H174.889V119.209L182.688 114.688H185.116V118.23C186.984 116.087 189.693 114.688 192.308 114.688C195.39 114.688 196.978 116.32 196.978 118.603C196.978 120.887 195.483 122.238 193.662 122.238C190.767 122.238 190.673 119.489 188.852 119.489V119.442Z" fill="white"/>
<path d="M191.514 87.2399C191.514 96.1876 183.762 103.504 172.087 103.504C162.234 103.504 155.275 98.2381 155.275 90.9215C155.275 84.537 160.225 80.436 166.25 80.436C170.499 80.436 173.488 82.7661 173.488 85.8419C173.488 88.2652 172.087 89.9429 169.472 89.9429C166.11 89.9429 165.596 85.702 162.981 85.702C160.926 85.702 158.871 87.706 158.871 90.9681C158.871 97.5857 166.063 100.428 171.9 100.428C179.092 100.428 184.229 96.2342 184.229 89.9429C184.229 75.4029 159.198 78.8049 159.245 63.6124C159.245 62.261 159.478 61.0493 159.992 59.9308C156.116 58.2532 152.38 56.9483 148.971 56.9483C142.62 56.9483 139.117 60.4901 139.117 65.0571C139.117 68.6921 141.686 70.6494 144.114 70.6494C145.282 70.6494 146.262 69.997 146.589 68.0863C146.869 66.3154 147.99 64.6377 150.512 64.6377C152.754 64.6377 154.435 66.5018 154.435 68.8319C154.435 72.1873 151.399 75.5427 145.982 75.5427C140.939 75.5427 135.568 71.8611 135.568 65.1037C135.568 58.3464 141.219 53.8259 149.018 53.8259C153.314 53.8259 157.564 55.4104 161.767 57.2279C164.662 53.9657 169.939 52.1948 176.15 52.1948C184.136 52.1948 189.132 55.457 189.132 59.8376C189.132 63.9853 185.583 66.8746 180.306 66.8746C175.87 66.8746 171.106 64.9173 166.296 62.7736C167.931 71.3951 191.561 69.7174 191.561 87.3331L191.514 87.2399ZM166.717 59.4648C171.293 61.6085 175.776 63.5658 180.259 63.5658C183.528 63.5658 185.537 61.9348 185.537 59.7444C185.537 57.1813 181.941 55.0842 176.15 55.0842C172.321 55.0842 168.164 56.4823 166.763 59.4648H166.717Z" fill="white"/>
<path d="M209.447 92.0402V90.1295C212.249 89.8499 212.902 89.2906 212.902 87.5197V73.7254C212.902 70.7428 211.221 69.5312 208.886 69.5312C206.551 69.5312 204.637 70.3234 202.722 71.5351V87.5197C202.722 89.2906 203.376 89.8499 206.178 90.1295V92.0402H192.495V90.1295C195.297 89.8499 195.904 89.2906 195.904 87.5197V73.6788C195.904 72.3739 195.437 71.9545 194.316 71.9545H192.448V70.2768L200.247 65.7563H202.675V68.5059C204.87 67.1078 208.232 65.7563 211.221 65.7563C214.91 65.7563 219.627 67.1078 219.627 73.8652V87.5663C219.627 89.3372 220.234 89.8965 223.036 90.1761V92.0868H209.353L209.447 92.0402Z" fill="white"/>
<path d="M232.236 92.7855C227.659 92.7855 224.671 90.4554 224.671 86.5874C224.671 80.2495 232.469 78.1057 241.249 76.5679V73.5853C241.249 69.7639 240.502 68.459 237.793 68.459C235.085 68.459 233.544 69.6241 232.75 72.3736C232.143 74.4241 230.788 75.4028 229.154 75.4028C227.519 75.4028 226.445 74.3775 226.445 72.3736C226.445 68.692 231.209 65.7095 238.307 65.7095C243.537 65.7095 248.02 67.6202 248.02 73.8649V86.867C248.02 88.5913 248.581 89.4302 249.702 89.4302C250.215 89.4302 250.822 89.2437 251.569 88.8709V91.3409C250.215 92.2263 248.721 92.6923 246.526 92.6923C243.911 92.6923 241.949 91.7603 241.389 89.1505C238.914 90.9214 235.738 92.7389 232.236 92.7389V92.7855ZM241.249 79.3174C235.552 80.2495 231.769 81.6475 231.769 85.3757C231.769 87.7991 233.357 88.7777 235.318 88.7777C237.466 88.7777 239.428 87.8457 241.249 86.5408V79.3174Z" fill="white"/>
<path d="M253.11 92.0399V90.1292C255.912 89.8496 256.519 89.2904 256.519 87.5195V60.024C256.519 58.7191 256.052 58.2997 254.932 58.2997H253.064V56.622L260.863 52.1016H263.291V78.5718L269.689 72.3271C271.463 70.5562 271.837 68.6921 267.634 68.4124V66.5483H281.504V68.4124C278.468 68.6921 277.067 69.4377 274.405 72.0008L271.276 75.1232L280.009 86.867C281.924 89.4302 282.905 89.8962 284.539 90.1758V92.0865H269.455V90.1758C272.771 89.8962 273.051 88.4049 271.884 86.7738L266.466 79.7835L263.338 82.8126V87.5661C263.338 89.337 263.991 89.8962 266.793 90.1758V92.0865H253.11V92.0399Z" fill="white"/>
<path d="M290.657 77.2669C290.61 77.9193 290.563 78.6184 290.563 79.3174C290.563 85.8418 292.758 89.803 298.409 89.803C301.865 89.803 304.947 87.5194 306.768 83.5116L309.337 84.9097C307.142 89.6632 303.546 92.8787 297.755 92.8787C288.602 92.8787 283.465 87.0534 283.465 79.3174C283.465 71.5814 288.695 65.7561 296.728 65.7561C302.939 65.7561 307.142 68.8318 308.169 74.3775H311.204C317.369 74.3775 320.731 71.2552 320.731 67.8998C320.731 66.0357 319.61 65.1502 318.676 65.1502C317.182 65.1502 316.808 66.1755 315.314 66.1755C313.306 66.1755 312.045 64.6842 312.045 63.0065C312.045 60.49 314.287 59.2783 316.435 59.2783C320.358 59.2783 324.047 62.2609 324.047 67.3406C324.047 72.9329 319.75 77.3601 311.204 77.3601H290.703L290.657 77.2669ZM301.865 74.2843C301.865 70.6027 299.81 68.5056 296.821 68.5056C293.132 68.5056 291.497 70.5561 290.89 74.2843H301.865Z" fill="white"/>
<path d="M200.247 109.283C200.247 106.766 201.928 105.275 204.263 105.275C206.598 105.275 208.139 106.44 208.139 108.164C208.139 110.308 205.944 111.706 203.329 112.638H206.831C207.485 112.638 207.672 112.545 207.906 111.287H208.559L208.092 115.061H207.439C207.439 115.061 207.392 114.689 207.065 114.689H200.387V113.384C203.095 111.939 205.664 110.401 205.664 108.304C205.664 107.139 205.01 106.44 203.656 106.44C202.302 106.44 201.274 107.372 201.274 109.329H200.247V109.283Z" fill="white"/>
<path d="M218.553 110.075C218.553 112.545 216.965 114.875 214.07 114.875C211.174 114.875 209.587 112.498 209.587 110.075C209.587 107.652 211.174 105.275 214.07 105.275C216.965 105.275 218.553 107.605 218.553 110.075ZM216.078 110.075C216.078 107.838 215.704 106.207 214.07 106.207C212.435 106.207 212.062 107.838 212.062 110.075C212.062 112.312 212.435 113.943 214.07 113.943C215.704 113.943 216.078 112.312 216.078 110.075Z" fill="white"/>
<path d="M219.674 109.283C219.674 106.766 221.355 105.275 223.69 105.275C226.025 105.275 227.566 106.44 227.566 108.164C227.566 110.308 225.371 111.706 222.756 112.638H226.258C226.912 112.638 227.099 112.545 227.333 111.287H227.986L227.519 115.061H226.866C226.866 115.061 226.819 114.689 226.492 114.689H219.814V113.384C222.522 111.939 225.091 110.401 225.091 108.304C225.091 107.139 224.437 106.44 223.083 106.44C221.729 106.44 220.701 107.372 220.701 109.329H219.674V109.283Z" fill="white"/>
<path d="M232.609 118.137C230.882 118.137 228.874 117.532 228.874 116.133C228.874 115.481 229.294 115.062 229.854 115.062C231.442 115.062 231.162 117.159 232.843 117.159C234.524 117.159 235.411 116.133 235.411 114.549C235.411 112.964 234.197 111.846 232.283 111.846C231.442 111.846 230.601 112.032 229.901 112.452L229.294 112.219L230.275 105.508H235.505C235.785 105.508 235.972 105.368 236.019 105.135H236.672L236.392 107.698H230.928L230.601 110.075C231.162 109.796 231.956 109.702 232.703 109.702C235.645 109.702 237.42 111.52 237.42 113.803C237.42 116.087 235.692 118.137 232.609 118.137Z" fill="white"/>
</g>
<defs>
<clipPath id="clip0_145_56">
<rect width="324" height="155" fill="white"/>
</clipPath>
</defs>
</svg>
